<?xml version="1.0" encoding="UTF-8" standalone="no"?><!-- Generator: Gravit.io --><svg xmlns="http://www.w3.org/2000/svg" xmlns:xlink="http://www.w3.org/1999/xlink" style="isolation:isolate" viewBox="329.5 176.49 354 431.01" width="354pt" height="431.01pt"><defs><clipPath id="_clipPath_BHpu1Ta5n1IZdAcVo2m6bWAe0zjce080"><rect x="329.5" y="176.49" width="354" height="431.01"/></clipPath></defs><g clip-path="url(#_clipPath_BHpu1Ta5n1IZdAcVo2m6bWAe0zjce080)"><circle vector-effect="non-scaling-stroke" cx="506.5" cy="430.5" r="175.5" fill="rgb(157,89,1)" stroke-width="3" stroke="rgb(0,0,0)" stroke-linejoin="miter" stroke-linecap="square" stroke-miterlimit="3"/><path d="M 441.667 293 L 571.333 293 C 579.359 293 585.875 299.516 585.875 307.542 L 585.875 334.458 C 585.875 342.484 579.359 349 571.333 349 L 441.667 349 C 433.641 349 427.125 342.484 427.125 334.458 L 427.125 307.542 C 427.125 299.516 433.641 293 441.667 293 Z" style="stroke:none;fill:#2E2E2E;stroke-miterlimit:10;"/><path d="M 441.667 293 L 571.333 293 C 579.359 293 585.875 299.516 585.875 307.542 L 585.875 334.458 C 585.875 342.484 579.359 349 571.333 349 L 441.667 349 C 433.641 349 427.125 342.484 427.125 334.458 L 427.125 307.542 C 427.125 299.516 433.641 293 441.667 293 Z" style="fill:none;stroke:#000000;stroke-width:3;stroke-linecap:square;stroke-miterlimit:2;"/><path d="M 487.603 179.491 L 527.825 179.825 C 541.671 179.94 552.818 191.274 552.703 205.119 L 550.691 447.631 C 550.576 461.476 539.242 472.624 525.397 472.509 L 485.175 472.175 C 471.329 472.06 460.182 460.726 460.297 446.881 L 462.309 204.369 C 462.424 190.524 473.758 179.376 487.603 179.491 Z" style="stroke:none;fill:#5D5D5D;stroke-linecap:square;stroke-miterlimit:2;"/><path d="M 487.603 179.491 L 527.825 179.825 C 541.671 179.94 552.818 191.274 552.703 205.119 L 550.691 447.631 C 550.576 461.476 539.242 472.624 525.397 472.509 L 485.175 472.175 C 471.329 472.06 460.182 460.726 460.297 446.881 L 462.309 204.369 C 462.424 190.524 473.758 179.376 487.603 179.491 Z" style="fill:none;stroke:#000000;stroke-width:3;stroke-linecap:square;stroke-miterlimit:2;"/><path d="M 412.548 430.5 L 600.453 430.5 C 612.345 430.5 622 440.155 622 452.047 L 622 493.453 C 622 505.345 612.345 515 600.453 515 L 412.548 515 C 400.655 515 391 505.345 391 493.453 L 391 452.047 C 391 440.155 400.655 430.5 412.548 430.5 Z" style="stroke:none;fill:#AE2197;stroke-linecap:square;stroke-miterlimit:2;"/><path d="M 412.548 430.5 L 600.453 430.5 C 612.345 430.5 622 440.155 622 452.047 L 622 493.453 C 622 505.345 612.345 515 600.453 515 L 412.548 515 C 400.655 515 391 505.345 391 493.453 L 391 452.047 C 391 440.155 400.655 430.5 412.548 430.5 Z" style="fill:none;stroke:#000000;stroke-width:3;stroke-linecap:square;stroke-miterlimit:2;"/></g></svg>