<?xml version="1.0" encoding="UTF-8" standalone="no"?>
<!DOCTYPE svg PUBLIC "-//W3C//DTD SVG 1.1//EN" "http://www.w3.org/Graphics/SVG/1.1/DTD/svg11.dtd">
<svg version="1.1" xmlns="http://www.w3.org/2000/svg" xmlns:xlink="http://www.w3.org/1999/xlink" preserveAspectRatio="xMidYMid meet" viewBox="0 0 640 640" width="640" height="640"><defs><path d="M462.13 309.96C462.13 393.11 394.62 460.62 311.46 460.62C228.31 460.62 160.8 393.11 160.8 309.96C160.8 226.8 228.31 159.29 311.46 159.29C394.62 159.29 462.13 226.8 462.13 309.96Z" id="b2xhR0dHmk"></path><path d="M378.85 190.39C389.89 190.39 398.85 199.35 398.85 210.39C398.85 216.84 398.85 216.18 398.85 222.62C398.85 233.67 389.89 242.62 378.85 242.62C347.89 242.62 275.03 242.62 244.08 242.62C233.03 242.62 224.08 233.67 224.08 222.62C224.08 216.18 224.08 216.84 224.08 210.39C224.08 199.35 233.03 190.39 244.08 190.39C275.03 190.39 347.89 190.39 378.85 190.39Z" id="a1Bsz2gU9O"></path><path d="M280.59 111.08C291.63 111.08 300.59 120.03 300.59 131.08C300.59 174.09 300.59 283.11 300.59 326.12C300.59 337.16 291.63 346.12 280.59 346.12C273.34 346.12 271.59 346.12 264.34 346.12C253.29 346.12 244.34 337.16 244.34 326.12C244.34 283.11 244.34 174.09 244.34 131.08C244.34 120.03 253.29 111.08 264.34 111.08C271.59 111.08 273.34 111.08 280.59 111.08Z" id="dvw4eRwrb"></path><path d="M356.25 111.08C367.29 111.08 376.25 120.03 376.25 131.08C376.25 174.09 376.25 283.11 376.25 326.12C376.25 337.16 367.29 346.12 356.25 346.12C349 346.12 347.25 346.12 340 346.12C328.95 346.12 320 337.16 320 326.12C320 283.11 320 174.09 320 131.08C320 120.03 328.95 111.08 340 111.08C347.25 111.08 349 111.08 356.25 111.08Z" id="chJicglIF"></path><path d="M378.85 312.97C389.89 312.97 398.85 321.92 398.85 332.97C398.85 342.23 398.85 350 398.85 359.26C398.85 370.31 389.89 379.26 378.85 379.26C347.89 379.26 275.03 379.26 244.08 379.26C233.03 379.26 224.08 370.31 224.08 359.26C224.08 350 224.08 342.23 224.08 332.97C224.08 321.92 233.03 312.97 244.08 312.97C275.03 312.97 347.89 312.97 378.85 312.97Z" id="f14udEU5nC"></path></defs><g><g><g><use xlink:href="#b2xhR0dHmk" opacity="1" fill="#724b34" fill-opacity="1"></use><g><use xlink:href="#b2xhR0dHmk" opacity="1" fill-opacity="0" stroke="#8a8a8a" stroke-width="3" stroke-opacity="1"></use></g></g><g><use xlink:href="#a1Bsz2gU9O" opacity="1" fill="#383838" fill-opacity="1"></use><g><use xlink:href="#a1Bsz2gU9O" opacity="1" fill-opacity="0" stroke="#8a8a8a" stroke-width="3" stroke-opacity="1"></use></g></g><g><use xlink:href="#dvw4eRwrb" opacity="1" fill="#6c6c6c" fill-opacity="1"></use><g><use xlink:href="#dvw4eRwrb" opacity="1" fill-opacity="0" stroke="#8a8a8a" stroke-width="3" stroke-opacity="1"></use></g></g><g><use xlink:href="#chJicglIF" opacity="1" fill="#6c6c6c" fill-opacity="1"></use><g><use xlink:href="#chJicglIF" opacity="1" fill-opacity="0" stroke="#8a8a8a" stroke-width="3" stroke-opacity="1"></use></g></g><g><use xlink:href="#f14udEU5nC" opacity="1" fill="#075d13" fill-opacity="1"></use><g><use xlink:href="#f14udEU5nC" opacity="1" fill-opacity="0" stroke="#8a8a8a" stroke-width="3" stroke-opacity="1"></use></g></g></g></g></svg>