<?xml version="1.0" encoding="UTF-8" standalone="no"?>
<!DOCTYPE svg PUBLIC "-//W3C//DTD SVG 1.1//EN" "http://www.w3.org/Graphics/SVG/1.1/DTD/svg11.dtd">
<svg version="1.1" xmlns="http://www.w3.org/2000/svg" xmlns:xlink="http://www.w3.org/1999/xlink" preserveAspectRatio="xMidYMid meet" viewBox="0 0 640 640" width="640" height="640"><defs><path d="M462.13 309.96C462.13 393.11 394.62 460.62 311.46 460.62C228.31 460.62 160.8 393.11 160.8 309.96C160.8 226.8 228.31 159.29 311.46 159.29C394.62 159.29 462.13 226.8 462.13 309.96Z" id="b2xhR0dHmk"></path><path d="M378.85 190.39C389.89 190.39 398.85 199.35 398.85 210.39C398.85 216.84 398.85 216.18 398.85 222.62C398.85 233.67 389.89 242.62 378.85 242.62C347.89 242.62 275.03 242.62 244.08 242.62C233.03 242.62 224.08 233.67 224.08 222.62C224.08 216.18 224.08 216.84 224.08 210.39C224.08 199.35 233.03 190.39 244.08 190.39C275.03 190.39 347.89 190.39 378.85 190.39Z" id="a1Bsz2gU9O"></path><path d="M326.8 111.08C337.85 111.08 346.8 120.03 346.8 131.08C346.8 174.09 346.8 283.11 346.8 326.12C346.8 337.16 337.85 346.12 326.8 346.12C316.67 346.12 306.26 346.12 296.12 346.12C285.08 346.12 276.12 337.16 276.12 326.12C276.12 283.11 276.12 174.09 276.12 131.08C276.12 120.03 285.08 111.08 296.12 111.08C306.26 111.08 316.67 111.08 326.8 111.08Z" id="b1rQgJPlZO"></path><path d="M359.5 259.69C370.55 259.69 379.5 268.65 379.5 279.69C379.5 289.92 379.5 300.6 379.5 310.82C379.5 321.87 370.55 330.82 359.5 330.82C336.29 330.82 286.64 330.82 263.42 330.82C252.38 330.82 243.42 321.87 243.42 310.82C243.42 300.6 243.42 289.92 243.42 279.69C243.42 268.65 252.38 259.69 263.42 259.69C286.64 259.69 336.29 259.69 359.5 259.69Z" id="d1tStWbY4j"></path><path d="M378.85 312.97C389.89 312.97 398.85 321.92 398.85 332.97C398.85 342.23 398.85 350 398.85 359.26C398.85 370.31 389.89 379.26 378.85 379.26C347.89 379.26 275.03 379.26 244.08 379.26C233.03 379.26 224.08 370.31 224.08 359.26C224.08 350 224.08 342.23 224.08 332.97C224.08 321.92 233.03 312.97 244.08 312.97C275.03 312.97 347.89 312.97 378.85 312.97Z" id="i1QezO5q6"></path></defs><g><g><g><use xlink:href="#b2xhR0dHmk" opacity="1" fill="#724b34" fill-opacity="1"></use><g><use xlink:href="#b2xhR0dHmk" opacity="1" fill-opacity="0" stroke="#8a8a8a" stroke-width="3" stroke-opacity="1"></use></g></g><g><use xlink:href="#a1Bsz2gU9O" opacity="1" fill="#383838" fill-opacity="1"></use><g><use xlink:href="#a1Bsz2gU9O" opacity="1" fill-opacity="0" stroke="#8a8a8a" stroke-width="3" stroke-opacity="1"></use></g></g><g><use xlink:href="#b1rQgJPlZO" opacity="1" fill="#6c6c6c" fill-opacity="1"></use><g><use xlink:href="#b1rQgJPlZO" opacity="1" fill-opacity="0" stroke="#8a8a8a" stroke-width="3" stroke-opacity="1"></use></g></g><g><use xlink:href="#d1tStWbY4j" opacity="1" fill="#6c6c6c" fill-opacity="1"></use><g><use xlink:href="#d1tStWbY4j" opacity="1" fill-opacity="0" stroke="#8a8a8a" stroke-width="3" stroke-opacity="1"></use></g></g><g><use xlink:href="#i1QezO5q6" opacity="1" fill="#a50000" fill-opacity="1"></use><g><use xlink:href="#i1QezO5q6" opacity="1" fill-opacity="0" stroke="#8a8a8a" stroke-width="3" stroke-opacity="1"></use></g></g></g></g></svg>