<?xml version="1.0" encoding="UTF-8" standalone="no"?>
<!DOCTYPE svg PUBLIC "-//W3C//DTD SVG 1.1//EN" "http://www.w3.org/Graphics/SVG/1.1/DTD/svg11.dtd">
<svg version="1.1" xmlns="http://www.w3.org/2000/svg" xmlns:xlink="http://www.w3.org/1999/xlink" preserveAspectRatio="xMidYMid meet" viewBox="0 0 640 640" width="640" height="640"><defs><path d="M462.13 309.96C462.13 393.11 394.62 460.62 311.46 460.62C228.31 460.62 160.8 393.11 160.8 309.96C160.8 226.8 228.31 159.29 311.46 159.29C394.62 159.29 462.13 226.8 462.13 309.96Z" id="b2xhR0dHmk"></path><path d="M342.19 182.39C353.23 182.39 362.19 191.35 362.19 202.39C362.19 208.84 362.19 208.18 362.19 214.62C362.19 225.67 353.23 234.62 342.19 234.62C325.9 234.62 297.03 234.62 280.74 234.62C269.69 234.62 260.74 225.67 260.74 214.62C260.74 208.18 260.74 208.84 260.74 202.39C260.74 191.35 269.69 182.39 280.74 182.39C297.03 182.39 325.9 182.39 342.19 182.39Z" id="a69QLY6JC1"></path><path d="M319.59 111.08C330.63 111.08 339.59 120.03 339.59 131.08C339.59 174.09 339.59 283.11 339.59 326.12C339.59 337.16 330.63 346.12 319.59 346.12C312.34 346.12 310.59 346.12 303.34 346.12C292.29 346.12 283.34 337.16 283.34 326.12C283.34 283.11 283.34 174.09 283.34 131.08C283.34 120.03 292.29 111.08 303.34 111.08C310.59 111.08 312.34 111.08 319.59 111.08Z" id="c4IfZFoIl"></path><path d="M378.85 312.97C389.89 312.97 398.85 321.92 398.85 332.97C398.85 342.23 398.85 350 398.85 359.26C398.85 370.31 389.89 379.26 378.85 379.26C347.89 379.26 275.03 379.26 244.08 379.26C233.03 379.26 224.08 370.31 224.08 359.26C224.08 350 224.08 342.23 224.08 332.97C224.08 321.92 233.03 312.97 244.08 312.97C275.03 312.97 347.89 312.97 378.85 312.97Z" id="b5gQMrb7k"></path></defs><g><g><g><use xlink:href="#b2xhR0dHmk" opacity="1" fill="#724b34" fill-opacity="1"></use><g><use xlink:href="#b2xhR0dHmk" opacity="1" fill-opacity="0" stroke="#8a8a8a" stroke-width="3" stroke-opacity="1"></use></g></g><g><use xlink:href="#a69QLY6JC1" opacity="1" fill="#383838" fill-opacity="1"></use><g><use xlink:href="#a69QLY6JC1" opacity="1" fill-opacity="0" stroke="#8a8a8a" stroke-width="3" stroke-opacity="1"></use></g></g><g><use xlink:href="#c4IfZFoIl" opacity="1" fill="#6c6c6c" fill-opacity="1"></use><g><use xlink:href="#c4IfZFoIl" opacity="1" fill-opacity="0" stroke="#8a8a8a" stroke-width="3" stroke-opacity="1"></use></g></g><g><use xlink:href="#b5gQMrb7k" opacity="1" fill="#115674" fill-opacity="1"></use><g><use xlink:href="#b5gQMrb7k" opacity="1" fill-opacity="0" stroke="#8a8a8a" stroke-width="3" stroke-opacity="1"></use></g></g></g></g></svg>