<?xml version="1.0" encoding="UTF-8" standalone="no"?>
<!DOCTYPE svg PUBLIC "-//W3C//DTD SVG 1.1//EN" "http://www.w3.org/Graphics/SVG/1.1/DTD/svg11.dtd">
<svg version="1.1" xmlns="http://www.w3.org/2000/svg" xmlns:xlink="http://www.w3.org/1999/xlink" preserveAspectRatio="xMidYMid meet" viewBox="0 0 640 640" width="640" height="640"><defs><path d="M462.13 309.96C462.13 393.11 394.62 460.62 311.46 460.62C228.31 460.62 160.8 393.11 160.8 309.96C160.8 226.8 228.31 159.29 311.46 159.29C394.62 159.29 462.13 226.8 462.13 309.96Z" id="b2xhR0dHmk"></path><path d="M376.49 187.71C385.14 187.71 392.15 194.72 392.15 203.36C392.15 208.41 392.15 207.89 392.15 212.94C392.15 221.59 385.14 228.6 376.49 228.6C347.35 228.6 275.58 228.6 246.44 228.6C237.79 228.6 230.78 221.59 230.78 212.94C230.78 207.89 230.78 208.41 230.78 203.36C230.78 194.72 237.79 187.71 246.44 187.71C275.58 187.71 347.35 187.71 376.49 187.71Z" id="eSAlcH3pe"></path><path d="M320.03 56.1C331.69 56.1 341.13 65.54 341.13 77.2C341.13 130.91 341.13 270.96 341.13 324.67C341.13 336.33 331.69 345.77 320.03 345.77C312.38 345.77 310.54 345.77 302.89 345.77C291.24 345.77 281.79 336.33 281.79 324.67C281.79 270.96 281.79 130.91 281.79 77.2C281.79 65.54 291.24 56.1 302.89 56.1C310.54 56.1 312.38 56.1 320.03 56.1Z" id="d58YLagQL"></path><path d="M367.04 286.49C373.92 286.49 379.5 292.08 379.5 298.96C379.5 305.33 379.5 311.99 379.5 318.36C379.5 325.24 373.92 330.82 367.04 330.82C342.32 330.82 280.61 330.82 255.88 330.82C249 330.82 243.42 325.24 243.42 318.36C243.42 311.99 243.42 305.33 243.42 298.96C243.42 292.08 249 286.49 255.88 286.49C280.61 286.49 342.32 286.49 367.04 286.49Z" id="cOJHRT9HU"></path><path d="M378.85 312.97C389.89 312.97 398.85 321.92 398.85 332.97C398.85 342.23 398.85 350 398.85 359.26C398.85 370.31 389.89 379.26 378.85 379.26C347.89 379.26 275.03 379.26 244.08 379.26C233.03 379.26 224.08 370.31 224.08 359.26C224.08 350 224.08 342.23 224.08 332.97C224.08 321.92 233.03 312.97 244.08 312.97C275.03 312.97 347.89 312.97 378.85 312.97Z" id="aZ4tSzWeP"></path><path d="M339.47 78.25C345.64 78.25 350.64 83.25 350.64 89.41C350.64 92.13 350.64 89.11 350.64 91.83C350.64 97.99 345.64 102.99 339.47 102.99C326.04 102.99 296.89 102.99 283.45 102.99C277.28 102.99 272.29 97.99 272.29 91.83C272.29 89.11 272.29 92.13 272.29 89.41C272.29 83.25 277.28 78.25 283.45 78.25C296.89 78.25 326.04 78.25 339.47 78.25Z" id="j3AZUUFdJJ"></path><path d="M339.47 119.9C345.64 119.9 350.64 124.89 350.64 131.06C350.64 133.78 350.64 130.76 350.64 133.48C350.64 139.64 345.64 144.64 339.47 144.64C326.04 144.64 296.89 144.64 283.45 144.64C277.28 144.64 272.29 139.64 272.29 133.48C272.29 130.76 272.29 133.78 272.29 131.06C272.29 124.89 277.28 119.9 283.45 119.9C296.89 119.9 326.04 119.9 339.47 119.9Z" id="d2CafjvO50"></path></defs><g><g><g><use xlink:href="#b2xhR0dHmk" opacity="1" fill="#724b34" fill-opacity="1"></use><g><use xlink:href="#b2xhR0dHmk" opacity="1" fill-opacity="0" stroke="#8a8a8a" stroke-width="3" stroke-opacity="1"></use></g></g><g><use xlink:href="#eSAlcH3pe" opacity="1" fill="#383838" fill-opacity="1"></use><g><use xlink:href="#eSAlcH3pe" opacity="1" fill-opacity="0" stroke="#8a8a8a" stroke-width="3" stroke-opacity="1"></use></g></g><g><use xlink:href="#d58YLagQL" opacity="1" fill="#6c6c6c" fill-opacity="1"></use><g><use xlink:href="#d58YLagQL" opacity="1" fill-opacity="0" stroke="#8a8a8a" stroke-width="3" stroke-opacity="1"></use></g></g><g><use xlink:href="#cOJHRT9HU" opacity="1" fill="#6c6c6c" fill-opacity="1"></use><g><use xlink:href="#cOJHRT9HU" opacity="1" fill-opacity="0" stroke="#8a8a8a" stroke-width="3" stroke-opacity="1"></use></g></g><g><use xlink:href="#aZ4tSzWeP" opacity="1" fill="#c9be05" fill-opacity="1"></use><g><use xlink:href="#aZ4tSzWeP" opacity="1" fill-opacity="0" stroke="#8a8a8a" stroke-width="3" stroke-opacity="1"></use></g></g><g><use xlink:href="#j3AZUUFdJJ" opacity="1" fill="#383838" fill-opacity="1"></use><g><use xlink:href="#j3AZUUFdJJ" opacity="1" fill-opacity="0" stroke="#8a8a8a" stroke-width="3" stroke-opacity="1"></use></g></g><g><use xlink:href="#d2CafjvO50" opacity="1" fill="#383838" fill-opacity="1"></use><g><use xlink:href="#d2CafjvO50" opacity="1" fill-opacity="0" stroke="#8a8a8a" stroke-width="3" stroke-opacity="1"></use></g></g></g></g></svg>